<svg width="62" height="58" viewBox="0 0 62 58" fill="none" xmlns="http://www.w3.org/2000/svg">
<g clip-path="url(#clip0_1_8439)">
<path d="M51.178 20.1968C51.1772 19.9073 51.1702 19.6178 51.157 19.3285V2.91212L46.5331 7.45062C42.7485 2.90404 36.9914 0 30.5427 0C23.8319 0 17.87 3.14389 14.1016 8.01303L21.6808 15.5302C22.4229 14.1845 23.4741 13.0269 24.751 12.1491C26.0743 11.1358 27.9491 10.3069 30.5427 10.3069C30.8561 10.3069 31.098 10.343 31.2756 10.4105C34.4891 10.6596 37.2745 12.4001 38.9144 14.9264L33.5492 20.1921C40.3448 20.1659 48.0214 20.1507 51.1776 20.1956" fill="#1C3AA9"/>
<path d="M30.4215 0.000976562C30.1264 0.00179016 29.8315 0.00868513 29.5367 0.0216569H12.8108L17.4349 4.56016C12.8026 8.27453 9.84375 13.9253 9.84375 20.2544C9.84375 26.8412 13.0469 32.6928 18.0079 36.3917L25.6668 28.9527C24.2957 28.2243 23.1163 27.1925 22.222 25.9391C21.1895 24.6405 20.345 22.8002 20.345 20.2546C20.345 19.9473 20.3818 19.7098 20.4506 19.5353C20.7044 16.3815 22.4777 13.6476 25.0517 12.0381L30.4166 17.3038C30.39 10.6338 30.3742 3.09922 30.4202 0.00145197" fill="#4285F4"/>
<path d="M9.84375 20.2539C9.84456 20.5447 9.85158 20.8341 9.86482 21.1222V37.5386L14.4889 33.0001C18.2733 37.5467 24.0306 40.4507 30.4791 40.4507C37.1901 40.4507 43.152 37.3069 46.9207 32.4377L39.3415 24.9205C38.5993 26.2662 37.5481 27.4238 36.271 28.3016C34.9479 29.315 33.0729 30.1439 30.4793 30.1439C30.1662 30.1439 29.9242 30.1077 29.7465 30.04C26.5331 29.7911 23.7477 28.0504 22.1079 25.5243L27.4728 20.2584C20.677 20.2846 13.0004 20.3 9.84423 20.2551" fill="#ABABAB"/>
<path d="M13.3235 48.2944C12.8208 48.2944 12.3702 48.3879 11.9716 48.5749C11.576 48.7557 11.2289 49.0244 10.9575 49.3598C10.6847 49.7 10.4745 50.1125 10.3271 50.5973C10.1841 51.0779 10.1125 51.6159 10.1125 52.2113V53.9276C10.1125 54.527 10.1841 55.0671 10.3271 55.5477C10.4744 56.0282 10.6824 56.4387 10.9512 56.7791C11.2197 57.1191 11.5447 57.3806 11.926 57.5635C12.3072 57.7465 12.7362 57.838 13.213 57.838C13.7027 57.838 14.1317 57.7678 14.5 57.6274C14.8727 57.4872 15.1846 57.2851 15.4358 57.0213C15.6872 56.7535 15.8801 56.4303 16.0144 56.0517C16.1531 55.6731 16.2354 55.2436 16.2614 54.7631H15.059C15.0286 55.1331 14.9766 55.45 14.903 55.7137C14.8292 55.9731 14.7209 56.1878 14.578 56.3578C14.4393 56.5238 14.2573 56.6471 14.0319 56.728C13.8108 56.8045 13.5379 56.8428 13.213 56.8428C12.8664 56.8428 12.5717 56.7683 12.329 56.6193C12.0864 56.4664 11.8892 56.258 11.7376 55.9942C11.5904 55.7305 11.482 55.4222 11.4126 55.0693C11.3475 54.7163 11.315 54.3357 11.315 53.9273V52.1985C11.315 51.7605 11.354 51.3628 11.432 51.0054C11.5143 50.6483 11.6378 50.3442 11.8025 50.0934C11.9672 49.8425 12.1753 49.6489 12.4266 49.5127C12.6779 49.3724 12.9768 49.3023 13.3235 49.3023C13.6139 49.3023 13.8631 49.3448 14.0709 49.4299C14.2791 49.5108 14.4525 49.6383 14.5908 49.8126C14.7297 49.9827 14.8358 50.1995 14.9093 50.4632C14.9831 50.7269 15.033 51.0417 15.059 51.4074H16.2614C16.2398 50.9057 16.1596 50.4613 16.0209 50.0741C15.8821 49.6871 15.6892 49.3618 15.4424 49.0981C15.1953 48.8344 14.8942 48.6345 14.539 48.4984C14.188 48.3624 13.7828 48.2946 13.3235 48.2944ZM42.6766 48.2942C42.1738 48.2942 41.7231 48.3877 41.3245 48.5747C40.9289 48.7555 40.5817 49.0242 40.3104 49.3596C40.0375 49.6998 39.8274 50.1123 39.68 50.5971C39.5371 51.0777 39.4657 51.6157 39.4657 52.2111V53.9273C39.4657 54.5268 39.5371 55.0669 39.68 55.5475C39.8272 56.028 40.0353 56.4384 40.3041 56.7788C40.5726 57.1189 40.8976 57.3804 41.2789 57.5632C41.6603 57.7463 42.0893 57.8378 42.5659 57.8378C43.0556 57.8378 43.4846 57.7676 43.8529 57.6272C44.2255 57.4869 44.5376 57.2849 44.7889 57.021C45.04 56.7532 45.2328 56.43 45.3673 56.0514C45.5061 55.6729 45.5885 55.2433 45.6143 54.7628H44.4119C44.3815 55.1329 44.3295 55.4497 44.2559 55.7134C44.1823 55.9728 44.0739 56.1876 43.9309 56.3576C43.7922 56.5235 43.6102 56.6469 43.385 56.7277C43.1638 56.8043 42.8908 56.8425 42.5659 56.8425C42.2193 56.8425 41.9246 56.768 41.6819 56.6191C41.4393 56.4662 41.2421 56.2578 41.0905 55.9939C40.9432 55.7302 40.8349 55.4219 40.7655 55.069C40.7006 54.7161 40.6681 54.3355 40.6681 53.9271V52.1982C40.6681 51.7602 40.7071 51.3626 40.7851 51.0052C40.8674 50.648 40.991 50.344 41.1556 50.0931C41.3203 49.8423 41.5283 49.6487 41.7795 49.5124C42.0309 49.3722 42.3299 49.3021 42.6763 49.3021C42.967 49.3021 43.2162 49.3446 43.424 49.4297C43.6318 49.5105 43.8051 49.6381 43.944 49.8124C44.0825 49.9824 44.1886 50.1993 44.2624 50.463C44.3362 50.7267 44.386 51.0414 44.4119 51.4072H45.6143C45.5927 50.9055 45.5125 50.461 45.3738 50.0739C45.235 49.6869 45.0421 49.3616 44.7952 49.0979C44.5482 48.8342 44.2471 48.6343 43.8919 48.4981C43.5409 48.3622 43.1357 48.2941 42.6763 48.2939M20.1745 48.4216L17.1263 57.7104H18.3481L19.0827 55.286H22.2805L23.0279 57.7104H24.25L21.195 48.4221L20.1745 48.4216ZM25.5365 48.4216V57.7099H26.7259V54.0735H28.5522C29.0072 54.0735 29.4102 54.0119 29.7612 53.8886C30.1122 53.761 30.4069 53.5781 30.6452 53.3399C30.8879 53.1018 31.0698 52.8083 31.1911 52.4595C31.317 52.1066 31.3799 51.7068 31.3797 51.2603C31.3797 50.8476 31.3169 50.4691 31.1911 50.1247C31.07 49.776 30.8902 49.4761 30.6517 49.2253C30.4134 48.97 30.1166 48.7722 29.7612 48.632C29.4102 48.4916 29.0072 48.4214 28.5522 48.4214L25.5365 48.4216ZM32.2896 48.4216V49.4295H34.7726V57.7099H35.9617V49.4295H38.4514V48.4216H32.2896ZM47.2195 48.4216V57.7099H48.4087V53.4165H52.2178V57.7099H53.4137V48.4216H52.2178V52.415H48.4089V48.4216H47.2195ZM57.9242 48.4216L54.8761 57.7099H56.0981L56.8324 55.2856H60.0303L60.7779 57.7099H62L58.945 48.4216H57.9242ZM26.7256 49.4295H28.5522C28.8425 49.4295 29.0895 49.4805 29.2933 49.5825C29.5011 49.6848 29.6701 49.8209 29.8002 49.9909C29.9375 50.1672 30.037 50.3689 30.0925 50.584C30.1576 50.8051 30.1901 51.0348 30.1901 51.2731C30.1901 51.5368 30.1576 51.7793 30.0925 52.0005C30.0369 52.2078 29.9373 52.4012 29.8002 52.5681C29.6701 52.7255 29.501 52.8488 29.2931 52.938C29.0896 53.0274 28.8426 53.0721 28.552 53.0721H26.7259L26.7256 49.4295ZM20.6811 50.0546L21.9746 54.2777H19.3946L20.6811 50.0546ZM58.4314 50.0546L59.7246 54.2777H57.1444L58.4314 50.0546ZM2.44367 50.6798C2.14449 50.6798 1.88664 50.7543 1.67013 50.9032C1.45781 51.0522 1.2802 51.2542 1.13731 51.5091L1.1177 50.8074H0V57.7099H1.15039V52.7721C1.25889 52.4786 1.41276 52.2468 1.612 52.0768C1.81544 51.9066 2.07321 51.8215 2.3853 51.8215C2.48509 51.8215 2.57389 51.8258 2.65171 51.8343C2.73002 51.8384 2.81454 51.8491 2.90528 51.8662L2.89898 50.7689C2.87182 50.7572 2.84338 50.7486 2.81422 50.7433C2.77628 50.7295 2.73723 50.7188 2.69748 50.7114C2.65236 50.7025 2.60675 50.6962 2.56089 50.6924C2.52242 50.6844 2.48324 50.6801 2.44391 50.6796L2.44367 50.6798ZM6.31092 50.6798C5.97735 50.6798 5.65451 50.7372 5.34241 50.8521C5.03048 50.967 4.75317 51.1562 4.5105 51.4198C4.27219 51.6793 4.07941 52.0196 3.93216 52.4405C3.78474 52.8574 3.71104 53.3699 3.71104 53.9779V54.7562C3.71104 55.2836 3.77393 55.7408 3.8997 56.1277C4.02516 56.5149 4.20494 56.836 4.43905 57.0912C4.67827 57.3424 4.97449 57.5348 5.30366 57.6526C5.64144 57.7759 6.02054 57.8376 6.44098 57.8376C6.74419 57.8376 7.01504 57.8078 7.25352 57.7482C7.49603 57.6888 7.71052 57.6122 7.89701 57.5186C8.0714 57.4291 8.23311 57.3176 8.37799 57.187C8.50558 57.0711 8.62096 56.9428 8.72238 56.8043L8.12442 56.0897C8.02916 56.2046 7.92736 56.3109 7.81902 56.4085C7.71052 56.5021 7.59137 56.5851 7.46155 56.6574C7.32574 56.7277 7.1816 56.7812 7.0324 56.8169C6.86001 56.8569 6.68328 56.8763 6.50612 56.8744C5.97299 56.8744 5.56345 56.7064 5.27751 56.3704C4.99592 56.0345 4.85513 55.4965 4.85513 54.7564V54.5967H8.78099V53.9397C8.78099 53.4123 8.73546 52.9466 8.6444 52.5427C8.55334 52.1387 8.40819 51.7985 8.20895 51.522C8.01493 51.2499 7.75003 51.034 7.44194 50.8968C7.13 50.7521 6.753 50.6798 6.31092 50.6798ZM6.31092 51.6496C6.56231 51.6496 6.77035 51.6942 6.93504 51.7835C7.09795 51.8711 7.23292 52.0014 7.32496 52.1597C7.42458 52.3214 7.49611 52.5149 7.53954 52.7405C7.58717 52.9615 7.61744 53.206 7.63036 53.474V53.6271H4.86167C4.87911 53.2401 4.92674 52.919 5.00456 52.6637C5.08271 52.4085 5.18459 52.2066 5.3102 52.0578C5.44018 51.9047 5.58969 51.7984 5.75873 51.7388C5.93621 51.6778 6.12314 51.6475 6.31116 51.6494" fill="#A6A6A6"/>
</g>
<defs>
<clipPath id="clip0_1_8439">
<rect width="62" height="58" fill="white"/>
</clipPath>
</defs>
</svg>
