<svg width="60" height="60" viewBox="0 0 60 60" fill="none" xmlns="http://www.w3.org/2000/svg">
<g clip-path="url(#clip0_1_8622)">
<path d="M33 28.59V12C33 8.8174 31.7357 5.76516 29.4853 3.51472C27.2349 1.26428 24.1826 0 21 0C17.8174 0 14.7652 1.26428 12.5147 3.51472C10.2643 5.76516 9 8.8174 9 12V28.59C6.28285 31.0203 4.36765 34.2183 3.50783 37.7609C2.64802 41.3035 2.88412 45.0237 4.1849 48.4292C5.48568 51.8347 7.78982 54.7649 10.7924 56.8322C13.795 58.8995 17.3546 60.0064 21 60.0064C24.6455 60.0064 28.205 58.8995 31.2076 56.8322C34.2102 54.7649 36.5143 51.8347 37.8151 48.4292C39.1159 45.0237 39.352 41.3035 38.4922 37.7609C37.6324 34.2183 35.7172 31.0203 33 28.59ZM21 57C17.9093 57.0012 14.8937 56.0476 12.3656 54.2697C9.83745 52.4917 7.92025 49.9763 6.87616 47.0672C5.83207 44.1582 5.71207 40.9977 6.53256 38.0179C7.35305 35.0381 9.07398 32.3845 11.46 30.42L12 30V12C12 9.61305 12.9482 7.32387 14.636 5.63604C16.3239 3.94821 18.6131 3 21 3C23.387 3 25.6761 3.94821 27.364 5.63604C29.0518 7.32387 30 9.61305 30 12V30L30.54 30.45C32.9144 32.4175 34.6247 35.0689 35.4381 38.0432C36.2515 41.0176 36.1285 44.1704 35.0857 47.0723C34.043 49.9743 32.1313 52.4844 29.6108 54.2608C27.0903 56.0372 24.0836 56.9937 21 57Z" fill="#D14040"/>
<path d="M24 36.84V15C24 14.2044 23.6839 13.4413 23.1213 12.8787C22.5587 12.3161 21.7957 12 21 12C20.2044 12 19.4413 12.3161 18.8787 12.8787C18.3161 13.4413 18 14.2044 18 15V36.84C16.8562 37.5004 15.9622 38.5198 15.4567 39.7401C14.9513 40.9603 14.8626 42.3133 15.2044 43.5891C15.5463 44.8649 16.2996 45.9922 17.3474 46.7963C18.3953 47.6003 19.6792 48.0362 21 48.0362C22.3208 48.0362 23.6047 47.6003 24.6526 46.7963C25.7004 45.9922 26.4537 44.8649 26.7956 43.5891C27.1374 42.3133 27.0487 40.9603 26.5433 39.7401C26.0378 38.5198 25.1439 37.5004 24 36.84Z" fill="#D14040"/>
<path d="M54 6H42V9H54V6Z" fill="#D14040"/>
<path d="M57 15H42V18H57V15Z" fill="#D14040"/>
<path d="M54 24H42V27H54V24Z" fill="#D14040"/>
</g>
<defs>
<clipPath id="clip0_1_8622">
<rect width="60" height="60" fill="white"/>
</clipPath>
</defs>
</svg>
